<svg xmlns="http://www.w3.org/2000/svg" viewBox="0 0 900 900" role="img" aria-labelledby="title desc">
  <title id="title">Custom Funko-Style Figure</title>
  <desc id="desc">Original customizable big-head mini figure product image.</desc>
  <defs>
    <radialGradient id="bg" cx="50%" cy="35%" r="70%"><stop offset="0" stop-color="#392448"/><stop offset=".62" stop-color="#111"/><stop offset="1" stop-color="#050505"/></radialGradient>
  </defs>
  <rect width="900" height="900" fill="url(#bg)"/>
  <ellipse cx="450" cy="752" rx="225" ry="45" fill="#000" opacity=".6"/>
  <ellipse cx="450" cy="721" rx="182" ry="41" fill="#252525" stroke="#e91e4d" stroke-width="6"/>
  <rect x="310" y="164" width="280" height="260" rx="80" fill="#f3c39b" stroke="#ffd8ba" stroke-width="8"/>
  <path d="M323 230c27-83 227-83 254 0v54c-76-38-178-38-254 0v-54Z" fill="#25202c"/>
  <circle cx="394" cy="304" r="38" fill="#151515"/><circle cx="506" cy="304" r="38" fill="#151515"/>
  <path d="M415 374c24 13 46 13 70 0" fill="none" stroke="#7a3d31" stroke-width="10" stroke-linecap="round"/>
  <path d="M358 434h184l55 136-40 145H343l-40-145 55-136Z" fill="#e91e4d" stroke="#ff7793" stroke-width="7"/>
  <path d="M402 446h96v173h-96V446Z" fill="#1b1b1d" opacity=".75"/>
  <path d="M310 520 213 601M590 520l97 81" stroke="#f3c39b" stroke-width="36" stroke-linecap="round"/>
  <path d="M390 715 365 800M510 715l25 85" stroke="#1b1b1d" stroke-width="46" stroke-linecap="round"/>
  <path d="M683 198h68v68M751 198 638 311" stroke="#e91e4d" stroke-width="17" stroke-linecap="round" stroke-linejoin="round"/>
  <path d="M168 266h94M215 219v94" stroke="#ffffff" stroke-width="14" stroke-linecap="round" opacity=".22"/>
</svg>
