<svg xmlns="http://www.w3.org/2000/svg" viewBox="0 0 900 900" role="img" aria-labelledby="title desc">
  <title id="title">Galactic Warrior Figure</title>
  <desc id="desc">Original sci-fi warrior collectible figure with neon blade.</desc>
  <rect width="900" height="900" fill="#07080c"/>
  <circle cx="230" cy="170" r="3" fill="#fff"/><circle cx="705" cy="220" r="4" fill="#fff"/><circle cx="615" cy="122" r="2" fill="#fff"/><circle cx="161" cy="411" r="3" fill="#fff"/>
  <ellipse cx="450" cy="746" rx="240" ry="47" fill="#000" opacity=".65"/>
  <ellipse cx="450" cy="716" rx="195" ry="43" fill="#202027" stroke="#4bd5ff" stroke-width="6"/>
  <path d="M450 142c-68 0-119 49-119 112 0 35 17 67 44 88l-54 174-84 80 43 50 84-62 39 132h94l39-132 84 62 43-50-84-80-54-174c27-21 44-53 44-88 0-63-51-112-119-112Z" fill="#303646" stroke="#94eaff" stroke-width="7"/>
  <path d="M371 242c43-53 115-53 158 0v72H371v-72Z" fill="#121724"/>
  <path d="M390 283h120" stroke="#4bd5ff" stroke-width="18" stroke-linecap="round"/>
  <path d="M383 383h134l39 130-106 62-106-62 39-130Z" fill="#151922" stroke="#4bd5ff" stroke-width="7"/>
  <path d="M640 231 520 590" stroke="#ff2a64" stroke-width="18" stroke-linecap="round"/>
  <path d="M640 231 520 590" stroke="#fff" stroke-width="5" stroke-linecap="round"/>
  <path d="M393 716 358 804M507 716l35 88" stroke="#303646" stroke-width="48" stroke-linecap="round"/>
</svg>
