<svg xmlns="http://www.w3.org/2000/svg" viewBox="0 0 900 900" role="img" aria-labelledby="title desc">
  <title id="title">Horror Balloon Mini Figure</title>
  <desc id="desc">Original spooky mini figure holding a red balloon.</desc>
  <defs>
    <radialGradient id="bg" cx="50%" cy="36%" r="72%"><stop offset="0" stop-color="#30101a"/><stop offset=".62" stop-color="#111"/><stop offset="1" stop-color="#050505"/></radialGradient>
  </defs>
  <rect width="900" height="900" fill="url(#bg)"/>
  <ellipse cx="450" cy="758" rx="220" ry="43" fill="#000" opacity=".62"/>
  <ellipse cx="450" cy="729" rx="175" ry="40" fill="#232323" stroke="#e91e4d" stroke-width="6"/>
  <path d="M627 126c58 0 101 45 101 101 0 73-101 134-101 134s-101-61-101-134c0-56 43-101 101-101Z" fill="#e91e4d" stroke="#ff718e" stroke-width="8"/>
  <path d="M604 351c-63 88-128 153-194 195" fill="none" stroke="#dedede" stroke-width="5"/>
  <path d="M450 272c-54 0-96 40-96 91 0 26 11 49 30 66l-58 90-41 195h330l-41-195-58-90c19-17 30-40 30-66 0-51-42-91-96-91Z" fill="#efefef" stroke="#b9b9b9" stroke-width="7"/>
  <path d="M382 343c34-48 102-48 136 0v70H382v-70Z" fill="#fff"/>
  <path d="M405 381h38M457 381h38" stroke="#e91e4d" stroke-width="14" stroke-linecap="round"/>
  <path d="M410 432c28 24 52 24 80 0" fill="none" stroke="#171717" stroke-width="9" stroke-linecap="round"/>
  <path d="M352 528h196l29 151H323l29-151Z" fill="#d6d6d6" stroke="#e91e4d" stroke-width="6"/>
  <path d="M385 714 358 790M515 714l27 76" stroke="#d6d6d6" stroke-width="42" stroke-linecap="round"/>
</svg>
